M48
; DRILL file {KiCad 5.1.11-e4df9d881f~92~ubuntu20.04.1} date Tue 02 Nov 2021 08:10:02 PM GMT
; FORMAT={-:-/ absolute / metric / decimal}
; #@! TF.CreationDate,2021-11-02T20:10:02+00:00
; #@! TF.GenerationSoftware,Kicad,Pcbnew,5.1.11-e4df9d881f~92~ubuntu20.04.1
; #@! TF.FileFunction,Plated,1,2,PTH
FMAT,2
METRIC
T1C0.700
T2C0.762
T3C0.900
T4C1.000
%
G90
G05
T1
X164.147Y-73.469
X164.147Y-81.09
X164.147Y-128.841
X164.147Y-136.462
T2
X79.184Y-110.68
X81.724Y-97.853
X81.724Y-110.68
X84.264Y-97.853
X84.264Y-110.68
X86.804Y-97.853
X86.804Y-110.68
X89.344Y-97.853
X89.344Y-110.68
X91.885Y-97.853
X91.885Y-110.68
X94.424Y-97.853
X94.424Y-110.68
X96.965Y-110.68
X105.029Y-95.758
X105.029Y-113.284
X144.653Y-95.758
X144.653Y-113.284
X159.893Y-103.632
X159.893Y-106.172
X159.893Y-108.712
X159.893Y-111.252
X159.893Y-113.792
X159.893Y-116.332
X171.196Y-103.632
X171.196Y-106.172
X171.196Y-108.712
X171.196Y-111.252
X171.196Y-113.792
X171.196Y-116.332
T3
X119.507Y-113.03
X129.667Y-113.03
X158.686Y-89.725
X158.686Y-99.885
X159.766Y-73.533
X159.766Y-76.073
X160.083Y-133.921
X160.083Y-136.462
X160.147Y-119.761
X160.147Y-129.921
T4
X85.547Y-123.85
X89.916Y-118.681
X89.98Y-90.106
X92.456Y-118.681
X92.519Y-90.106
X94.996Y-118.681
X95.059Y-90.106
X97.536Y-118.681
X97.599Y-90.106
X100.076Y-118.681
X100.139Y-90.106
X102.616Y-118.681
X102.679Y-90.106
X109.525Y-118.567
X117.221Y-73.724
X117.221Y-88.963
X117.348Y-119.126
X117.348Y-134.366
X119.761Y-73.724
X119.761Y-88.963
X119.888Y-119.126
X119.888Y-134.366
X122.301Y-73.724
X122.301Y-88.963
X122.428Y-119.126
X122.428Y-134.366
X124.841Y-73.724
X124.841Y-88.963
X124.968Y-119.126
X124.968Y-134.366
X127.381Y-73.724
X127.381Y-88.963
X127.508Y-119.126
X127.508Y-134.366
X129.921Y-73.724
X129.921Y-88.963
X130.048Y-119.126
X130.048Y-134.366
X132.461Y-73.724
X132.461Y-88.963
X132.588Y-119.126
X132.588Y-134.366
X135.001Y-73.724
X135.001Y-88.963
X135.128Y-119.126
X135.128Y-134.366
X137.541Y-73.724
X137.541Y-88.963
X137.668Y-119.126
X137.668Y-134.366
X140.081Y-73.724
X140.081Y-88.963
X140.208Y-119.126
X140.208Y-134.366
X142.621Y-73.724
X142.621Y-88.963
X142.748Y-119.126
X142.748Y-134.366
X144.145Y-103.188
X144.145Y-105.727
X145.161Y-73.724
X145.161Y-88.963
X145.288Y-119.126
X145.288Y-134.366
X147.701Y-73.724
X147.701Y-88.963
X147.828Y-119.126
X147.828Y-134.366
X150.241Y-73.724
X150.241Y-88.963
X150.368Y-119.126
X150.368Y-134.366
X152.781Y-73.724
X152.781Y-88.963
X152.908Y-119.126
X152.908Y-134.366
X164.719Y-92.011
X164.719Y-94.551
X164.719Y-97.091
X169.1Y-92.011
X169.1Y-94.551
X169.1Y-97.091
X177.99Y-80.962
X177.99Y-83.502
X177.99Y-86.042
X177.99Y-88.582
X177.99Y-91.123
X177.99Y-93.662
X177.99Y-96.203
X177.99Y-98.742
X177.99Y-101.282
X177.99Y-103.822
X177.99Y-106.362
X177.99Y-108.902
X177.99Y-111.442
X177.99Y-113.983
X177.99Y-116.522
X177.99Y-119.062
X177.99Y-121.602
X177.99Y-124.142
X177.99Y-126.682
X177.99Y-129.222
X180.53Y-80.962
X180.53Y-83.502
X180.53Y-86.042
X180.53Y-88.582
X180.53Y-91.123
X180.53Y-93.662
X180.53Y-96.203
X180.53Y-98.742
X180.53Y-101.282
X180.53Y-103.822
X180.53Y-106.362
X180.53Y-108.902
X180.53Y-111.442
X180.53Y-113.983
X180.53Y-116.522
X180.53Y-119.062
X180.53Y-121.602
X180.53Y-124.142
X180.53Y-126.682
X180.53Y-129.222
T2
X153.231Y-95.504G85X151.696Y-95.504
G05
X153.231Y-99.842G85X151.696Y-99.842
G05
X153.231Y-104.18G85X151.696Y-104.18
G05
T0
M30
