M48
; DRILL file {KiCad 5.1.11-e4df9d881f~92~ubuntu20.04.1} date Wed 03 Nov 2021 05:38:06 PM GMT
; FORMAT={-:-/ absolute / metric / decimal}
; #@! TF.CreationDate,2021-11-03T17:38:06+00:00
; #@! TF.GenerationSoftware,Kicad,Pcbnew,5.1.11-e4df9d881f~92~ubuntu20.04.1
FMAT,2
METRIC
T1C1.000
T2C1.200
T3C1.500
T4C2.750
%
G90
G05
T1
X79.184Y-110.68
X81.724Y-97.853
X81.724Y-110.68
X84.264Y-97.853
X84.264Y-110.68
X86.804Y-97.853
X86.804Y-110.68
X89.344Y-97.853
X89.344Y-110.68
X89.916Y-117.157
X90.043Y-91.44
X91.885Y-97.853
X91.885Y-110.68
X92.456Y-117.157
X92.583Y-91.44
X94.424Y-97.853
X94.424Y-110.68
X94.996Y-117.157
X95.123Y-91.44
X96.965Y-110.68
X97.536Y-117.157
X97.663Y-91.44
X100.076Y-117.157
X100.203Y-91.44
X102.616Y-117.157
X102.743Y-91.44
X104.394Y-95.758
X104.394Y-113.284
X117.221Y-73.724
X117.221Y-88.963
X117.348Y-119.126
X117.348Y-134.366
X119.507Y-113.03
X119.761Y-73.724
X119.761Y-88.963
X119.888Y-119.126
X119.888Y-134.366
X122.301Y-73.724
X122.301Y-88.963
X122.428Y-119.126
X122.428Y-134.366
X124.841Y-73.724
X124.841Y-88.963
X124.968Y-119.126
X124.968Y-134.366
X127.381Y-73.724
X127.381Y-88.963
X127.508Y-119.126
X127.508Y-134.366
X129.667Y-113.03
X129.921Y-73.724
X129.921Y-88.963
X130.048Y-119.126
X130.048Y-134.366
X132.461Y-73.724
X132.461Y-88.963
X132.588Y-119.126
X132.588Y-134.366
X135.001Y-73.724
X135.001Y-88.963
X135.128Y-119.126
X135.128Y-134.366
X137.541Y-73.724
X137.541Y-88.963
X137.668Y-119.126
X137.668Y-134.366
X140.081Y-73.724
X140.081Y-88.963
X140.208Y-119.126
X140.208Y-134.366
X142.621Y-73.724
X142.621Y-88.963
X142.748Y-119.126
X142.748Y-134.366
X144.018Y-95.758
X144.018Y-113.284
X144.145Y-103.188
X144.145Y-105.727
X145.161Y-73.724
X145.161Y-88.963
X145.288Y-119.126
X145.288Y-134.366
X147.701Y-73.724
X147.701Y-88.963
X147.828Y-119.126
X147.828Y-134.366
X150.241Y-73.724
X150.241Y-88.963
X150.368Y-119.126
X150.368Y-134.366
X152.781Y-73.724
X152.781Y-88.963
X152.908Y-119.126
X152.908Y-134.366
X158.686Y-89.725
X158.686Y-99.885
X159.766Y-73.533
X159.766Y-76.073
X160.083Y-133.921
X160.083Y-136.462
X160.147Y-119.761
X160.147Y-129.921
X160.393Y-103.632
X160.393Y-106.172
X160.393Y-108.712
X160.393Y-111.252
X160.393Y-113.792
X160.393Y-116.332
X164.147Y-73.469
X164.147Y-81.09
X164.147Y-128.841
X164.147Y-136.462
X165.481Y-92.011
X165.481Y-94.551
X165.481Y-97.091
X169.1Y-92.011
X169.1Y-94.551
X169.1Y-97.091
X170.696Y-103.632
X170.696Y-106.172
X170.696Y-108.712
X170.696Y-111.252
X170.696Y-113.792
X170.696Y-116.332
X177.99Y-80.962
X177.99Y-83.502
X177.99Y-86.042
X177.99Y-88.582
X177.99Y-91.123
X177.99Y-93.662
X177.99Y-96.203
X177.99Y-98.742
X177.99Y-101.282
X177.99Y-103.822
X177.99Y-106.362
X177.99Y-108.902
X177.99Y-111.442
X177.99Y-113.983
X177.99Y-116.522
X177.99Y-119.062
X177.99Y-121.602
X177.99Y-124.142
X177.99Y-126.682
X177.99Y-129.222
X180.53Y-80.962
X180.53Y-83.502
X180.53Y-86.042
X180.53Y-88.582
X180.53Y-91.123
X180.53Y-93.662
X180.53Y-96.203
X180.53Y-98.742
X180.53Y-101.282
X180.53Y-103.822
X180.53Y-106.362
X180.53Y-108.902
X180.53Y-111.442
X180.53Y-113.983
X180.53Y-116.522
X180.53Y-119.062
X180.53Y-121.602
X180.53Y-124.142
X180.53Y-126.682
X180.53Y-129.222
T2
X85.547Y-123.85
X88.646Y-113.792
X99.327Y-101.562
X105.08Y-104.788
X109.525Y-118.567
X111.697Y-113.093
X130.442Y-80.607
X164.782Y-107.188
X165.494Y-120.231
X167.259Y-112.712
X168.326Y-125.489
X173.799Y-96.456
T3
X150.685Y-96.012
X150.685Y-100.35
X150.685Y-104.688
T4
X179.26Y-76.093
X179.26Y-134.093
X202.26Y-76.093
X202.26Y-134.093
T0
M30
